<svg id="visual" viewBox="0 0 900 600" width="900" height="600" xmlns="http://www.w3.org/2000/svg" xmlns:xlink="http://www.w3.org/1999/xlink" version="1.1"><rect x="0" y="0" width="900" height="600" fill="#161816"></rect><defs><linearGradient id="grad1_0" x1="33.3%" y1="0%" x2="100%" y2="100%"><stop offset="20%" stop-color="#161816" stop-opacity="1"></stop><stop offset="80%" stop-color="#161816" stop-opacity="1"></stop></linearGradient></defs><defs><linearGradient id="grad2_0" x1="0%" y1="0%" x2="66.7%" y2="100%"><stop offset="20%" stop-color="#161816" stop-opacity="1"></stop><stop offset="80%" stop-color="#161816" stop-opacity="1"></stop></linearGradient></defs><g transform="translate(900, 0)"><path d="M0 243.4C-24.4 236.6 -48.8 229.9 -72 221.6C-95.2 213.3 -117.2 203.5 -138.7 190.9C-160.3 178.3 -181.4 162.9 -196.9 143.1C-212.4 123.2 -222.4 99 -229.2 74.5C-236 49.9 -239.7 25 -243.4 0L0 0Z" fill="#FBAE3C"></path></g><g transform="translate(0, 600)"><path d="M0 -243.4C24.1 -235.9 48.2 -228.4 71.7 -220.6C95.2 -212.9 118.1 -204.9 139.9 -192.5C161.7 -180.2 182.4 -163.6 196.9 -143.1C211.4 -122.5 219.6 -98 226.4 -73.5C233.1 -49.1 238.2 -24.5 243.4 0L0 0Z" fill="#FBAE3C"></path></g></svg>